<svg width="24" height="24" fill="none" xmlns="http://www.w3.org/2000/svg"><path d="M21.5 4h-2.167v1.333h2V20H2.667V5.333h2V4H2.5a1.186 1.186 0 00-1.167 1.207v14.92A1.187 1.187 0 002.5 21.333h19a1.188 1.188 0 001.167-1.206V5.207A1.186 1.186 0 0021.5 4z" fill="#000"/><path d="M5.333 9.333h1.334v1.334H5.333V9.333zm4 0h1.334v1.334H9.333V9.333zm4 0h1.334v1.334h-1.334V9.333zm4 0h1.334v1.334h-1.334V9.333zm-12 3.334h1.334V14H5.333v-1.333zm4 0h1.334V14H9.333v-1.333zm4 0h1.334V14h-1.334v-1.333zm4 0h1.334V14h-1.334v-1.333zM5.333 16h1.334v1.333H5.333V16zm4 0h1.334v1.333H9.333V16zm4 0h1.334v1.333h-1.334V16zm4 0h1.334v1.333h-1.334V16zM6.667 6.667A.667.667 0 007.333 6V2A.667.667 0 106 2v4a.667.667 0 00.667.667zm10.666 0A.667.667 0 0018 6V2a.667.667 0 00-1.333 0v4a.667.667 0 00.666.667zM8.667 4h6.666v1.333H8.667V4z" fill="#000"/></svg>