<?xml version="1.0" standalone="no"?><!DOCTYPE svg PUBLIC "-//W3C//DTD SVG 1.1//EN" "http://www.w3.org/Graphics/SVG/1.1/DTD/svg11.dtd"><svg t="1666603156941" class="icon" viewBox="0 0 1024 1024" version="1.1" xmlns="http://www.w3.org/2000/svg" p-id="33149" xmlns:xlink="http://www.w3.org/1999/xlink" width="200" height="200"><path d="M821.76 133.12H151.04c-43.52 0-81.92 38.4-81.92 81.92v494.08c0 43.52 38.4 81.92 81.92 81.92h71.68c15.36 0 28.16-10.24 28.16-28.16s-10.24-28.16-28.16-28.16H151.04c-15.36 0-28.16-12.8-28.16-28.16V215.04c0-15.36 12.8-28.16 28.16-28.16h673.28c15.36 0 28.16 12.8 28.16 28.16v494.08c0 15.36-12.8 28.16-28.16 28.16h-202.24c-2.56 0-5.12 0-10.24 2.56 0 0-2.56 0-2.56 2.56 0 0-2.56 2.56-5.12 2.56l-112.64 112.64h-2.56L435.2 803.84c-10.24-10.24-28.16-10.24-38.4 0-10.24 10.24-10.24 28.16 0 38.4l56.32 53.76c10.24 10.24 25.6 15.36 40.96 15.36 15.36 0 28.16-5.12 40.96-15.36l104.96-104.96h192c43.52 0 81.92-38.4 81.92-81.92V215.04c-7.68-43.52-43.52-81.92-92.16-81.92z" p-id="33150"></path><path d="M238.08 463.36m-46.08 0a46.08 46.08 0 1 0 92.16 0 46.08 46.08 0 1 0-92.16 0Z" p-id="33151"></path><path d="M512 422.4c-15.36-7.68-33.28-7.68-46.08 0-15.36 7.68-23.04 23.04-23.04 40.96 0 17.92 10.24 33.28 23.04 40.96 7.68 5.12 15.36 5.12 23.04 5.12s15.36-2.56 23.04-5.12c15.36-7.68 23.04-23.04 23.04-40.96s-10.24-33.28-23.04-40.96z" p-id="33152"></path><path d="M737.28 463.36m-46.08 0a46.08 46.08 0 1 0 92.16 0 46.08 46.08 0 1 0-92.16 0Z" p-id="33153"></path></svg>